<?xml version="1.0" encoding="UTF-8"?>
<svg version="1.1" xmlns="http://www.w3.org/2000/svg" width="600" height="600">
<path d="M0 0 C8.7232837 6.65653649 15.97000955 14.62255118 21.3515625 24.1875 C21.9703125 25.21875 22.5890625 26.25 23.2265625 27.3125 C28.14228046 36.07787661 32.43129217 45.10168513 36.2890625 54.375 C36.59561768 55.1057373 36.90217285 55.83647461 37.21801758 56.58935547 C38.447648 59.60203847 39.3515625 61.90192182 39.3515625 65.1875 C39.99254883 65.18305878 40.63353516 65.17861755 41.29394531 65.17404175 C48.04392233 65.12934733 54.79385644 65.09944497 61.54394531 65.07763672 C64.05372834 65.06765938 66.5635 65.05407273 69.07324219 65.03662109 C96.93901905 64.84788874 124.93198846 65.59889123 146.203125 86.01171875 C146.91210938 86.72972656 147.62109375 87.44773437 148.3515625 88.1875 C149.17527344 88.97125 149.99898438 89.755 150.84765625 90.5625 C164.20194663 104.5626297 171.24751114 125.50024801 171.7265625 144.5625 C171.15816941 167.44032206 161.43196863 185.67736513 150.3515625 205.1875 C149.90731934 205.97511719 149.46307617 206.76273438 149.00537109 207.57421875 C141.33108579 221.13064412 133.08362146 234.47460788 122.6171875 246.07421875 C121.10465927 248.10924383 121.10465927 248.10924383 121.63037109 250.47338867 C122.4011946 253.37428405 123.4222789 255.97609634 124.625 258.7265625 C125.1099292 259.84135986 125.5948584 260.95615723 126.09448242 262.10473633 C126.63836539 263.34072081 127.1823976 264.57663962 127.7265625 265.8125 C128.30282315 267.13095806 128.87874038 268.44956626 129.4543457 269.76831055 C131.41138193 274.24521467 133.38044554 278.71678068 135.3515625 283.1875 C135.70833069 283.99684998 136.06509888 284.80619995 136.43267822 285.64007568 C140.35019132 294.52486468 144.2758627 303.40603701 148.20527649 312.28556824 C154.12613176 325.66631255 160.02056774 339.05854847 165.89282227 352.46069336 C166.25574875 353.28898148 166.61867523 354.11726959 166.99259949 354.97065735 C167.71483011 356.6189803 168.43700885 358.26732599 169.15913391 359.91569519 C171.28019153 364.75415065 173.41130295 369.58801799 175.55162048 374.41798401 C176.88417319 377.42615208 178.21276761 380.43605938 179.54086304 383.44619751 C180.15853695 384.84321106 180.77814791 386.23936998 181.39981079 387.63461304 C182.24545249 389.53290896 183.08441041 391.43402319 183.921875 393.3359375 C184.39383301 394.39989746 184.86579102 395.46385742 185.35205078 396.56005859 C186.3515625 399.1875 186.3515625 399.1875 186.3515625 402.1875 C178.54417042 403.24401218 170.84094106 403.36435367 162.96875 403.390625 C161.56309981 403.39763687 160.15745 403.40472375 158.75180054 403.41188049 C154.24338376 403.43144211 149.73501736 403.43631819 145.2265625 403.4375 C144.07685219 403.43816278 144.07685219 403.43816278 142.90391541 403.43883896 C98.89961117 403.45216818 56.03580873 400.66289524 13.3515625 389.1875 C12.36816895 388.92743164 11.38477539 388.66736328 10.37158203 388.39941406 C-24.34089626 379.12079644 -24.34089626 379.12079644 -38.72607422 371.01708984 C-45.23553639 368.20795186 -55.71072226 374.39108513 -61.7734375 376.75 C-84.52025387 385.36012845 -107.79526504 391.59952999 -131.60888672 396.52905273 C-133.65439248 396.9721635 -135.6928553 397.44897764 -137.72314453 397.95727539 C-146.5254109 400.15478139 -155.25807596 401.15660336 -164.2734375 401.875 C-165.42891083 401.96980652 -165.42891083 401.96980652 -166.60772705 402.06652832 C-180.16439458 403.1638816 -193.58472732 403.52851167 -207.1864624 403.23754883 C-211.28352459 403.15426076 -215.3808522 403.08641177 -219.47814941 403.01580811 C-233.86881328 402.76712542 -248.2587272 402.48595361 -262.6484375 402.1875 C-263.78576675 398.77551224 -263.5925392 398.41033415 -262.19238281 395.29638672 C-261.67427032 394.12491592 -261.67427032 394.12491592 -261.14569092 392.92977905 C-260.56697235 391.66129623 -260.56697235 391.66129623 -259.9765625 390.3671875 C-259.58349915 389.48535797 -259.19043579 388.60352844 -258.78546143 387.69497681 C-257.49868449 384.81340808 -256.19856034 381.93806861 -254.8984375 379.0625 C-254.00617165 377.07010443 -253.11489867 375.07726394 -252.22460938 373.08398438 C-250.47631643 369.17220296 -248.72364405 365.26243899 -246.96679688 361.35449219 C-244.32763952 355.47978614 -241.7299949 349.58775003 -239.1484375 343.6875 C-235.49509112 335.36586762 -231.8195525 327.05417774 -228.13821411 318.74490356 C-224.85957132 311.34258138 -221.59142592 303.93566482 -218.32809448 296.52658081 C-215.90081195 291.01814366 -213.46072521 285.51562115 -211.01054382 280.01733398 C-209.4894106 276.59672911 -207.97940197 273.17129587 -206.47225952 269.74450684 C-205.76119958 268.13408853 -205.04545795 266.52572857 -204.32485962 264.91955566 C-203.33175644 262.7042187 -202.35542426 260.48220582 -201.3828125 258.2578125 C-201.08801498 257.61085419 -200.79321747 256.96389587 -200.48948669 256.29733276 C-198.86748192 252.53125388 -198.28097643 250.10250644 -199.6484375 246.1875 C-201.26991789 243.68079125 -201.26991789 243.68079125 -203.3984375 241.125 C-214.05434537 227.46733556 -222.9689793 212.45167655 -231.42578125 197.36132812 C-232.56797659 195.33055591 -233.73131408 193.31338184 -234.8984375 191.296875 C-247.29493368 169.4930679 -251.25646439 147.48151338 -244.9609375 123.0625 C-241.16180554 110.78515812 -235.29343218 100.65303655 -226.6484375 91.1875 C-225.94976562 90.39601563 -225.25109375 89.60453125 -224.53125 88.7890625 C-212.52579072 75.90408239 -193.97325031 66.92849126 -176.28504944 66.01351929 C-172.41297895 65.95717199 -168.54396445 65.96193429 -164.671875 65.9921875 C-163.25127361 65.99592626 -161.83066961 65.99876914 -160.4100647 66.00076294 C-156.70457608 66.00833161 -152.99924889 66.0279203 -149.29382324 66.0501709 C-145.49928978 66.07077673 -141.70472976 66.07979589 -137.91015625 66.08984375 C-130.48951043 66.11117394 -123.06899674 66.14522608 -115.6484375 66.1875 C-115.51345352 65.43876617 -115.37846954 64.69003235 -115.23939514 63.91860962 C-114.42238672 60.14280674 -112.88019884 56.7319185 -111.33203125 53.2109375 C-110.82990868 52.06209579 -110.82990868 52.06209579 -110.31764221 50.89004517 C-109.60672844 49.27003084 -108.89295259 47.65126987 -108.17651367 46.03369141 C-107.10117209 43.59702081 -106.04544564 41.15247287 -104.99023438 38.70703125 C-101.04948383 29.70729448 -96.95116666 21.79782438 -90.6484375 14.1875 C-90.17365967 13.60226563 -89.69888184 13.01703125 -89.2097168 12.4140625 C-88.09787446 11.08063916 -86.9384054 9.7872688 -85.7734375 8.5 C-84.66355469 7.25669922 -84.66355469 7.25669922 -83.53125 5.98828125 C-81.6484375 4.1875 -81.6484375 4.1875 -79.6484375 4.1875 C-79.6484375 3.5275 -79.6484375 2.8675 -79.6484375 2.1875 C-70.21592178 -3.47927453 -61.43847592 -8.25576311 -50.6484375 -10.8125 C-49.85566406 -11.00199219 -49.06289063 -11.19148438 -48.24609375 -11.38671875 C-31.16897507 -14.18582542 -14.1989866 -9.71730056 0 0 Z M-44.6484375 52.1875 C-46.27990068 54.918956 -47.49789135 57.78949736 -48.73046875 60.71875 C-49.10150726 61.56940536 -49.47254578 62.42006073 -49.85482788 63.29649353 C-51.06938054 66.0882552 -52.26493999 68.88774554 -53.4609375 71.6875 C-54.30818869 73.6426431 -55.15692061 75.59714515 -56.00708008 77.55102539 C-57.73576342 81.52663543 -59.45844192 85.50476197 -61.17675781 89.48486328 C-64.35187849 96.8266956 -67.60058961 104.13515181 -70.86083984 111.43948364 C-72.17201165 114.37825332 -73.47932068 117.31873476 -74.78668213 120.25920105 C-76.729238 124.62819559 -78.67347416 128.99644279 -80.61730957 133.36486816 C-82.89911906 138.4929786 -85.18040343 143.62132223 -87.4609375 148.75 C-87.78504608 149.47886414 -88.10915466 150.20772827 -88.44308472 150.9586792 C-92.45782495 159.98883251 -96.46266944 169.02331335 -100.45703125 178.0625 C-100.86462677 178.98464798 -101.27222229 179.90679596 -101.69216919 180.85688782 C-103.73733323 185.48522453 -105.77954912 190.11482733 -107.81640625 194.74682617 C-111.3485066 202.77230159 -114.90093099 210.78349359 -118.58984375 218.73828125 C-119.17321893 220.00691121 -119.7562413 221.27570348 -120.33886719 222.54467773 C-121.38590012 224.81540284 -122.44679486 227.07981126 -123.52441406 229.33618164 C-124.19875488 230.80559204 -124.19875488 230.80559204 -124.88671875 232.3046875 C-125.27899658 233.13597168 -125.67127441 233.96725586 -126.07543945 234.82373047 C-126.83131869 237.94193362 -126.12799305 239.3907472 -124.6484375 242.1875 C-116.18872275 251.96806241 -105.70029103 260.12202071 -95.6484375 268.1875 C-94.71773437 268.93644531 -93.78703125 269.68539062 -92.828125 270.45703125 C-78.77977303 281.51598195 -63.83834105 291.43836873 -48.5859375 300.75 C-47.66433838 301.32854736 -46.74273926 301.90709473 -45.79321289 302.50317383 C-44.92946045 303.01904053 -44.06570801 303.53490723 -43.17578125 304.06640625 C-42.42031006 304.5260376 -41.66483887 304.98566895 -40.88647461 305.45922852 C-38.60271585 306.43552723 -38.60271585 306.43552723 -36.09375 305.43603516 C-35.28679687 305.02401855 -34.47984375 304.61200195 -33.6484375 304.1875 C-33.03105713 303.8881958 -32.41367676 303.5888916 -31.77758789 303.28051758 C-11.07839438 292.26004796 10.27845987 279.05337207 26.5859375 261.9921875 C28.30805526 260.23196979 30.0959707 258.65073089 31.9765625 257.0625 C38.46333556 251.500548 44.3519169 245.26298382 50.3515625 239.1875 C48.15342881 232.00897948 45.25474122 225.3056142 42.11471558 218.49139404 C40.54528715 215.08290374 38.99288136 211.66669205 37.44140625 208.25 C37.11155228 207.52380463 36.7816983 206.79760925 36.44184875 206.04940796 C32.46238038 197.26209476 28.6280583 188.41183513 24.7890625 179.5625 C19.3947085 167.13644302 13.94056961 154.74300452 8.37255859 142.39355469 C4.04663927 132.78128991 -0.19301894 123.13241053 -4.41989136 113.47622681 C-10.3929837 99.83123832 -16.39564696 86.20132777 -22.5234375 72.625 C-22.81048553 71.98773987 -23.09753357 71.35047974 -23.39328003 70.69390869 C-28.03152812 57.8225764 -28.03152812 57.8225764 -36.6484375 48.1875 C-40.74042465 48.1875 -41.74714261 49.32510238 -44.6484375 52.1875 Z M-184.6484375 132.1875 C-188.4284836 138.3137816 -188.65344937 145.14450343 -187.6484375 152.1875 C-185.31829844 158.68274355 -181.86998713 164.78822366 -178.6484375 170.875 C-178.01035156 172.09799805 -178.01035156 172.09799805 -177.359375 173.34570312 C-175.00690559 177.80890046 -172.53621057 182.04969553 -169.6484375 186.1875 C-167.74469448 183.33188547 -166.42550553 180.62910006 -165.03125 177.5 C-164.51199951 176.33831299 -163.99274902 175.17662598 -163.45776367 173.97973633 C-162.89617821 172.71572125 -162.3347395 171.45164097 -161.7734375 170.1875 C-161.19720499 168.89404258 -160.6207867 167.60066791 -160.04418945 166.30737305 C-158.84826332 163.6239692 -157.65398548 160.93983864 -156.46044922 158.25537109 C-154.97588915 154.91892992 -153.4827102 151.58644251 -151.98553467 148.25564575 C-151.13796929 146.36958387 -150.29205907 144.48278945 -149.44677734 142.59570312 C-148.3857985 140.22739509 -147.32238226 137.86017724 -146.25634766 135.49414062 C-145.78116699 134.43001953 -145.30598633 133.36589844 -144.81640625 132.26953125 C-144.39641357 131.33343018 -143.9764209 130.3973291 -143.54370117 129.43286133 C-142.52498315 127.28074759 -142.52498315 127.28074759 -142.6484375 125.1875 C-147.12747849 125.099658 -151.60629474 125.04682553 -156.0859375 125 C-157.34599609 124.97486328 -158.60605469 124.94972656 -159.90429688 124.92382812 C-169.00190924 124.85256745 -178.02627877 125.17580252 -184.6484375 132.1875 Z M66.3515625 125.1875 C68.46162456 131.96007457 71.06690117 138.42481051 73.9140625 144.91796875 C74.34662354 145.91202225 74.77918457 146.90607574 75.22485352 147.93025208 C76.13408988 150.0176881 77.04516994 152.10432194 77.95800781 154.19018555 C79.35125734 157.37430258 80.73859874 160.56094291 82.125 163.74804688 C83.01267673 165.78400423 83.90068615 167.81981657 84.7890625 169.85546875 C85.40793335 171.27595772 85.40793335 171.27595772 86.03930664 172.72514343 C88.03294374 177.27625147 90.07293063 181.7717349 92.3515625 186.1875 C95.68994958 182.25998579 98.238433 178.17324819 100.7265625 173.6875 C101.11650391 172.9847998 101.50644531 172.28209961 101.90820312 171.55810547 C110.77560674 156.66686296 110.77560674 156.66686296 111.8671875 139.96875 C110.02514317 134.48355133 107.43640072 130.40365563 102.3515625 127.4375 C97.57424257 125.44695003 93.81722368 125.06703657 88.6171875 125.08984375 C86.67392578 125.09467773 86.67392578 125.09467773 84.69140625 125.09960938 C83.32812433 125.10796402 81.96484308 125.11642896 80.6015625 125.125 C79.22265785 125.13001832 77.84375146 125.13458065 76.46484375 125.13867188 C73.09370591 125.15045907 69.72265622 125.16691365 66.3515625 125.1875 Z M74.3515625 298.1875 C72.80851822 299.76561346 71.26690379 301.34513863 69.73046875 302.9296875 C65.14516559 307.28158442 60.03944403 311.01976727 55.03808594 314.87695312 C52.72071117 316.67771568 50.44284662 318.52576304 48.1640625 320.375 C43.02963525 324.5013367 37.7092453 328.35767351 32.3515625 332.1875 C37.16156291 335.39416694 42.67809459 335.96780806 48.2890625 337.125 C49.56837646 337.39006348 50.84769043 337.65512695 52.16577148 337.92822266 C66.61649738 340.84126364 81.59453931 343.1875 96.3515625 343.1875 C94.85184474 338.41929744 92.9991914 333.9030252 90.98046875 329.33984375 C90.65747299 328.60552628 90.33447723 327.8712088 90.00169373 327.11463928 C89.32140973 325.57021492 88.63975014 324.02639582 87.95678711 322.4831543 C86.91657871 320.13069049 85.88284198 317.77545645 84.84960938 315.41992188 C84.18528491 313.91389081 83.520584 312.40802574 82.85546875 310.90234375 C82.54912003 310.20326401 82.2427713 309.50418427 81.92713928 308.78392029 C80.29077919 305.10046147 78.66051878 301.50118703 76.3515625 298.1875 C75.6915625 298.1875 75.0315625 298.1875 74.3515625 298.1875 Z M-153.6484375 299.1875 C-156.07887944 304.66435946 -158.49967494 310.14534109 -160.91162109 315.63037109 C-161.73352382 317.495795 -162.55805273 319.36006411 -163.38525391 321.22314453 C-164.57365816 323.9009774 -165.75256263 326.5828183 -166.9296875 329.265625 C-167.48746887 330.51427338 -167.48746887 330.51427338 -168.05651855 331.78814697 C-168.39687134 332.56865417 -168.73722412 333.34916138 -169.08789062 334.15332031 C-169.3898938 334.83726868 -169.69189697 335.52121704 -170.00305176 336.22589111 C-170.85678942 338.47659736 -170.85678942 338.47659736 -170.6484375 342.1875 C-171.6384375 342.6825 -171.6384375 342.6825 -172.6484375 343.1875 C-157.63652978 342.20651201 -142.95033043 340.54171344 -128.17773438 337.67675781 C-125.83221085 337.22304844 -123.4835665 336.79277324 -121.1328125 336.3671875 C-119.85921875 336.12226563 -118.585625 335.87734375 -117.2734375 335.625 C-116.19320312 335.41746094 -115.11296875 335.20992188 -114 334.99609375 C-113.22398437 334.72925781 -112.44796875 334.46242188 -111.6484375 334.1875 C-111.3184375 333.1975 -110.9884375 332.2075 -110.6484375 331.1875 C-111.6384375 331.1875 -112.6284375 331.1875 -113.6484375 331.1875 C-113.6484375 330.1975 -113.6484375 329.2075 -113.6484375 328.1875 C-117.69686947 324.96185046 -117.69686947 324.96185046 -122.6484375 324.1875 C-122.87144531 323.61 -123.09445313 323.0325 -123.32421875 322.4375 C-125.04692778 319.51041918 -127.07078818 318.15780883 -129.8359375 316.1875 C-135.63514223 311.9769259 -141.21735275 307.55680116 -146.74682617 302.99804688 C-149.80581359 300.16452084 -149.80581359 300.16452084 -153.6484375 299.1875 Z " fill="#FFFFFF" transform="translate(336.6484375,67.8125)"/>
<path d="M0 0 C2.97 0 5.94 0 9 0 C9.33 0.66 9.66 1.32 10 2 C10.99 1.34 11.98 0.68 13 0 C17.86217986 -0.71970304 21.90340041 -0.507685 26.375 1.5625 C30.89460618 5.75927717 33.19999372 9.4286421 33.4375 15.5625 C33.12084253 21.40087215 31.01421693 25.25020857 26.9375 29.375 C23.17214579 32.44187699 19.97280339 32.58283739 15.234375 32.40625 C13 32 13 32 10 30 C9.67 34.29 9.34 38.58 9 43 C6.03 43 3.06 43 0 43 C0 28.81 0 14.62 0 0 Z M9 12 C8.27692887 14.8228697 8.28953972 17.17548716 9 20 C10.91182268 22.74612994 10.91182268 22.74612994 14 24 C17.8137751 24 20.02424548 23.84985071 22.9375 21.3125 C24.3613395 18.2135552 24.55153827 16.37817188 24 13 C21.70853575 9.98836127 20.23996182 8.27899141 16.5 7.4375 C12.97333979 8.23099855 11.38945749 9.26919144 9 12 Z " fill="#FFFFFF" transform="translate(229,501)"/>
<path d="M0 0 C2.64 0 5.28 0 8 0 C8 14.52 8 29.04 8 44 C5.36 44 2.72 44 0 44 C-0.33 43.34 -0.66 42.68 -1 42 C-1.56976563 42.32226562 -2.13953125 42.64453125 -2.7265625 42.9765625 C-6.45191603 44.65361168 -9.99421553 44.55732653 -14 44 C-18.82626694 41.63239735 -21.73430831 38.87995132 -24 34 C-24.76765612 28.29741169 -24.8217584 23.61518031 -22.1875 18.4375 C-21.465625 17.633125 -20.74375 16.82875 -20 16 C-19.484375 15.401875 -18.96875 14.80375 -18.4375 14.1875 C-15.72041059 11.94294788 -12.93613443 11.84094548 -9.5625 11.8125 C-8.80066406 11.79832031 -8.03882813 11.78414063 -7.25390625 11.76953125 C-5 12 -5 12 -1 14 C-0.67 9.38 -0.34 4.76 0 0 Z M-13.375 21.5 C-15.34683501 24.53359233 -15.64552934 26.51931016 -15.4453125 30.08984375 C-15.08049476 32.27926437 -15.08049476 32.27926437 -12.9375 34.5625 C-9.08838451 36.44610971 -7.07579849 36.207644 -3 35 C-0.44921042 32.77834456 -0.06667329 31.39170557 0.5 28.0625 C-0.18189573 23.88588865 -1.63003665 22.49084248 -5 20 C-8.65126535 19.32935942 -10.23686002 19.51801686 -13.375 21.5 Z " fill="#FFFFFF" transform="translate(345,489)"/>
<path d="M0 0 C0.76183594 -0.01417969 1.52367187 -0.02835937 2.30859375 -0.04296875 C4.79597315 0.21137334 6.41058106 0.94732804 8.5625 2.1875 C8.8925 1.5275 9.2225 0.8675 9.5625 0.1875 C15.71484375 0.08984375 15.71484375 0.08984375 17.5625 0.1875 C19.44569268 2.07069268 18.69304285 5.30680137 18.6953125 7.8125 C18.69626923 8.47459473 18.69722595 9.13668945 18.69821167 9.81884766 C18.69889326 11.22102961 18.69704042 12.6232147 18.69287109 14.02539062 C18.68752246 16.17845713 18.6928167 18.33131502 18.69921875 20.484375 C18.69855796 21.84375046 18.69727679 23.2031258 18.6953125 24.5625 C18.69418457 25.80773437 18.69305664 27.05296875 18.69189453 28.3359375 C18.5625 31.1875 18.5625 31.1875 17.5625 32.1875 C14.89191149 32.32865161 12.23817762 32.22997107 9.5625 32.1875 C9.2325 31.5275 8.9025 30.8675 8.5625 30.1875 C7.99144531 30.50847656 7.42039063 30.82945312 6.83203125 31.16015625 C3.08603678 32.85584738 -0.41127876 32.84608931 -4.4375 32.1875 C-8.37421688 30.42693372 -10.83344823 28.00589272 -13.375 24.5625 C-15.32581456 18.36579492 -15.64656612 12.52224837 -12.625 6.6875 C-11.903125 5.8625 -11.18125 5.0375 -10.4375 4.1875 C-9.921875 3.589375 -9.40625 2.99125 -8.875 2.375 C-6.15791059 0.13044788 -3.37363443 0.02844548 0 0 Z M-3.8125 9.6875 C-5.78433501 12.72109233 -6.08302934 14.70681016 -5.8828125 18.27734375 C-5.51799476 20.46676437 -5.51799476 20.46676437 -3.375 22.75 C0.47411549 24.63360971 2.48670151 24.395144 6.5625 23.1875 C9.11328958 20.96584456 9.49582671 19.57920557 10.0625 16.25 C9.38060427 12.07338865 7.93246335 10.67834248 4.5625 8.1875 C0.91123465 7.51685942 -0.67436002 7.70551686 -3.8125 9.6875 Z " fill="#FFFFFF" transform="translate(188.4375,500.8125)"/>
<path d="M0 0 C0.76183594 -0.01417969 1.52367188 -0.02835937 2.30859375 -0.04296875 C4.79597315 0.21137334 6.41058106 0.94732804 8.5625 2.1875 C8.8925 1.5275 9.2225 0.8675 9.5625 0.1875 C15.71484375 0.08984375 15.71484375 0.08984375 17.5625 0.1875 C19.44569268 2.07069268 18.69304285 5.30680137 18.6953125 7.8125 C18.69626923 8.47459473 18.69722595 9.13668945 18.69821167 9.81884766 C18.69889326 11.22102961 18.69704042 12.6232147 18.69287109 14.02539062 C18.68752246 16.17845713 18.6928167 18.33131502 18.69921875 20.484375 C18.69855796 21.84375046 18.69727679 23.2031258 18.6953125 24.5625 C18.69418457 25.80773437 18.69305664 27.05296875 18.69189453 28.3359375 C18.5625 31.1875 18.5625 31.1875 17.5625 32.1875 C14.89191149 32.32865161 12.23817762 32.22997107 9.5625 32.1875 C9.2325 31.5275 8.9025 30.8675 8.5625 30.1875 C7.99144531 30.50847656 7.42039062 30.82945312 6.83203125 31.16015625 C3.08603678 32.85584738 -0.41127876 32.84608931 -4.4375 32.1875 C-8.37421688 30.42693372 -10.83344823 28.00589272 -13.375 24.5625 C-15.32581456 18.36579492 -15.64656612 12.52224837 -12.625 6.6875 C-11.903125 5.8625 -11.18125 5.0375 -10.4375 4.1875 C-9.921875 3.589375 -9.40625 2.99125 -8.875 2.375 C-6.15791059 0.13044788 -3.37363443 0.02844548 0 0 Z M-3.8125 9.6875 C-5.78433501 12.72109233 -6.08302934 14.70681016 -5.8828125 18.27734375 C-5.51799476 20.46676437 -5.51799476 20.46676437 -3.375 22.75 C0.47411549 24.63360971 2.48670151 24.395144 6.5625 23.1875 C9.11328958 20.96584456 9.49582671 19.57920557 10.0625 16.25 C9.38060427 12.07338865 7.93246335 10.67834248 4.5625 8.1875 C0.91123465 7.51685942 -0.67436002 7.70551686 -3.8125 9.6875 Z " fill="#FFFFFF" transform="translate(89.4375,500.8125)"/>
<path d="M0 0 C5.00230198 2.45567552 8.49851535 5.9970307 11 11 C11.59057744 16.67862925 11.29370905 21.16922672 8 26 C3.79473011 30.13798557 0.66110361 32.15906972 -5.25 32.3125 C-10.33937369 32.25927779 -13.12381874 31.49801724 -17 28 C-21.08142118 23.4773441 -22.32364536 20.20853647 -22.2109375 14.0546875 C-21.72144252 9.28664383 -19.46819043 6.20887323 -15.9375 3.1875 C-10.74602946 -0.6784887 -6.36230412 -0.64792913 0 0 Z M-13 12 C-13.72307113 14.8228697 -13.71046028 17.17548716 -13 20 C-11.08817732 22.74612994 -11.08817732 22.74612994 -8 24 C-4.53241058 23.94021398 -2.11173251 23.60965977 0.9375 21.9375 C2.69816113 18.72688264 2.75353146 15.50004798 2 12 C-0.39421995 9.26374862 -1.94269804 8.21146039 -5.5 7.5 C-9.05730196 8.21146039 -10.60578005 9.26374862 -13 12 Z " fill="#FFFFFF" transform="translate(306,501)"/>
<path d="M0 0 C4.45146251 2.18526342 7.18885145 4.9394521 10 9 C11.44865941 13.34597823 11.88893053 17.60375247 10.28125 21.9375 C7.60982527 26.9356495 4.37657513 30.20780829 -1 32 C-5.96860315 32.52166057 -9.85518979 32.5724051 -14.375 30.3125 C-17.96775803 27.14745126 -21.69412413 23.78798338 -22.23828125 18.828125 C-22.40659218 12.98153463 -22.02425335 9.56807137 -18 5 C-12.09652224 -0.20068279 -7.76521275 -0.7907996 0 0 Z M-13 12 C-13.72307113 14.8228697 -13.71046028 17.17548716 -13 20 C-11.08817732 22.74612994 -11.08817732 22.74612994 -8 24 C-4.22089384 24 -1.99306967 23.83289714 0.9375 21.375 C2.45259656 17.98831357 2.52368962 15.66582737 2 12 C-0.3935517 9.33289953 -1.98436983 8.20312603 -5.5 7.5 C-9.05730196 8.21146039 -10.60578005 9.26374862 -13 12 Z " fill="#FFFFFF" transform="translate(483,501)"/>
<path d="M0 0 C2.97 0 5.94 0 9 0 C9.33 0.66 9.66 1.32 10 2 C10.99 1.34 11.98 0.68 13 0 C15.05078125 -0.37109375 15.05078125 -0.37109375 17.3125 -0.4375 C18.42044922 -0.49744141 18.42044922 -0.49744141 19.55078125 -0.55859375 C22.41473104 0.09458778 24.59963357 1.06436591 26.80249023 3.03637695 C29.59792026 7.6201983 28.58362869 13.6422532 28.375 18.8125 C28.34792969 20.07771484 28.32085938 21.34292969 28.29296875 22.64648438 C28.22233697 25.7660547 28.12373646 28.88215841 28 32 C25.36 32 22.72 32 20 32 C19.505 20.615 19.505 20.615 19 9 C17.02 9 15.04 9 13 9 C9.16469576 13.0152119 9.45756438 18.06116942 9.3125 23.3125 C9.27833984 24.14845703 9.24417969 24.98441406 9.20898438 25.84570312 C9.12694539 27.89667772 9.0617849 29.94831538 9 32 C6.03 32 3.06 32 0 32 C0 21.44 0 10.88 0 0 Z " fill="#FFFFFF" transform="translate(499,501)"/>
<path d="M0 0 C2.97 0 5.94 0 9 0 C9.04898437 1.40894531 9.09796875 2.81789063 9.1484375 4.26953125 C9.22347003 6.11720739 9.29901766 7.96486267 9.375 9.8125 C9.4059375 10.74126953 9.436875 11.67003906 9.46875 12.62695312 C9.50742187 13.51962891 9.54609375 14.41230469 9.5859375 15.33203125 C9.6173584 16.15421143 9.6487793 16.9763916 9.68115234 17.82348633 C9.88373622 20.28952937 9.88373622 20.28952937 12 23 C13.98 22.67 15.96 22.34 18 22 C18.33 14.74 18.66 7.48 19 0 C21.97 0 24.94 0 28 0 C28.08761663 3.54150893 28.14059739 7.08273633 28.1875 10.625 C28.21263672 11.62402344 28.23777344 12.62304688 28.26367188 13.65234375 C28.32820986 20.14916739 27.78080061 24.63986593 23.5 29.8125 C19.44662318 33.02142331 13.87771728 32.52424064 9 32 C4.67347222 30.11206061 3.36388785 28.77261496 1.3515625 24.5 C-0.41782069 19.50596565 -0.33609278 14.74265822 -0.1875 9.5 C-0.17396484 8.5821875 -0.16042969 7.664375 -0.14648438 6.71875 C-0.11148684 4.47890785 -0.05769376 2.23937248 0 0 Z " fill="#FFFFFF" transform="translate(360,501)"/>
<path d="M0 0 C3.3593654 1.76033552 5.57201291 3.57777279 6.74609375 7.23046875 C4.05859375 8.85546875 4.05859375 8.85546875 0.74609375 10.23046875 C-1.69140625 9.41796875 -1.69140625 9.41796875 -4.25390625 8.23046875 C-8.11219123 8.02740112 -11.55809618 8.04780953 -15.25390625 9.23046875 C-15.43953125 10.48859375 -15.62515625 11.74671875 -15.81640625 13.04296875 C-15.92082031 13.75066406 -16.02523438 14.45835937 -16.1328125 15.1875 C-16.39295424 17.43300295 -16.39295424 17.43300295 -15.25390625 20.23046875 C-12.27138503 22.25805993 -10.26114617 22.39596805 -6.75390625 21.85546875 C-2.0312474 21.16000871 1.48245235 20.79410223 5.74609375 23.23046875 C5.68359375 24.98046875 5.68359375 24.98046875 4.74609375 27.23046875 C-0.40460714 31.35102947 -4.8559838 31.85789084 -11.37890625 31.61328125 C-16.90345699 30.87767531 -19.90990109 28.75131669 -23.62890625 24.54296875 C-25.99733062 19.71502676 -27.05461224 15.35490192 -25.6953125 10.05078125 C-23.75059927 5.46990121 -21.01932291 2.47962373 -16.6640625 0.078125 C-11.28132502 -1.81499337 -5.40448123 -1.84520416 0 0 Z " fill="#FFFFFF" transform="translate(419.25390625,501.76953125)"/>
<path d="M0 0 C3.5625 1.8125 3.5625 1.8125 6 4 C6 7 6 7 4 9.1875 C3.01 10.0846875 3.01 10.0846875 2 11 C1.236875 10.649375 0.47375 10.29875 -0.3125 9.9375 C-3.04759379 8.67639116 -3.04759379 8.67639116 -6 10 C-5.39671875 10.30292969 -4.7934375 10.60585938 -4.171875 10.91796875 C4.67072525 15.55320275 4.67072525 15.55320275 7 20 C7.1629889 24.56368922 6.48441012 26.4162237 3.5625 29.9375 C0.03777407 32.50248128 -3.32262595 32.64864912 -7.5859375 32.4296875 C-11.31332383 31.76623686 -13.21757123 30.56276334 -16 28 C-16 25 -16 25 -14.5625 22.6875 C-12 21 -12 21 -9.73046875 21.19140625 C-7.44958788 21.70505344 -5.22873562 22.29518617 -3 23 C-4.25298704 19.24103887 -5.87307427 18.91149035 -9.20703125 17.08984375 C-11.94930488 15.42297154 -13.43786436 13.79882635 -15 11 C-15.07317145 6.82922721 -14.65572297 4.79916237 -12 1.5625 C-7.89460656 -0.57572575 -4.53935438 -0.80434174 0 0 Z " fill="#FFFFFF" transform="translate(128,501)"/>
<path d="M0 0 C2.97 0 5.94 0 9 0 C9 3.96 9 7.92 9 12 C10.65 12 12.3 12 14 12 C14 14.64 14 17.28 14 20 C12.35 20 10.7 20 9 20 C9 27.92 9 35.84 9 44 C6.03 44 3.06 44 0 44 C0 36.41 0 28.82 0 21 C-1.32 20.67 -2.64 20.34 -4 20 C-4 17.36 -4 14.72 -4 12 C-2.68 12 -1.36 12 0 12 C0 8.04 0 4.08 0 0 Z " fill="#FFFFFF" transform="translate(432,489)"/>
<path d="M0 0 C2.97 0 5.94 0 9 0 C9 3.96 9 7.92 9 12 C10.65 12 12.3 12 14 12 C14 14.64 14 17.28 14 20 C12.35 20 10.7 20 9 20 C9 27.92 9 35.84 9 44 C6.03 44 3.06 44 0 44 C0 36.41 0 28.82 0 21 C-0.99 20.67 -1.98 20.34 -3 20 C-3 17.36 -3 14.72 -3 12 C-2.01 11.67 -1.02 11.34 0 11 C0 7.37 0 3.74 0 0 Z " fill="#FFFFFF" transform="translate(140,489)"/>
<path d="M0 0 C6 0 12 0 18 0 C17.3125 3.375 17.3125 3.375 16 7 C13.4375 8.3125 13.4375 8.3125 11 9 C9.79729036 11.40541929 9.79683337 13.10366591 9.68359375 15.7890625 C9.62075195 17.20058594 9.62075195 17.20058594 9.55664062 18.640625 C9.49766602 20.11789062 9.49766602 20.11789062 9.4375 21.625 C9.39431641 22.61757813 9.35113281 23.61015625 9.30664062 24.6328125 C9.20038931 27.08839838 9.09835036 29.54408703 9 32 C6.03 32 3.06 32 0 32 C0 21.44 0 10.88 0 0 Z " fill="#FFFFFF" transform="translate(265,501)"/>
<path d="M0 0 C5.66666667 0 11.33333333 0 17 0 C16.125 5.75 16.125 5.75 15 8 C13.35 8 11.7 8 10 8 C9.67 15.92 9.34 23.84 9 32 C6.03 32 3.06 32 0 32 C0 21.44 0 10.88 0 0 Z " fill="#FFFFFF" transform="translate(155,501)"/>
<path d="M0 0 C2.64 0 5.28 0 8 0 C8 10.56 8 21.12 8 32 C5.36 32 2.72 32 0 32 C0 21.44 0 10.88 0 0 Z " fill="#FFFFFF" transform="translate(448,501)"/>
<path d="M0 0 C0 0.99 0 1.98 0 3 C-18.67312272 9.48627502 -37.30748764 15.59233882 -57 18 C-57 17.34 -57 16.68 -57 16 C-56.33170166 15.84442627 -55.66340332 15.68885254 -54.97485352 15.52856445 C-36.3226172 11.1683222 -18.11981302 6.19818932 0 0 Z " fill="#FFFFFF" transform="translate(274,446)"/>
<path d="M0 0 C3.0625 0.375 3.0625 0.375 5.0625 2.0625 C6.0625 4.375 6.0625 4.375 5.375 7 C4.0625 9.375 4.0625 9.375 2.0625 11.375 C-1.23464793 11.04528521 -2.5601839 10.7523161 -4.9375 8.375 C-5.1875 5.375 -5.1875 5.375 -4.9375 2.375 C-2.9375 0.375 -2.9375 0.375 0 0 Z " fill="#FFFFFF" transform="translate(451.9375,488.625)"/>
<path d="M0 0 C-2.18522816 0.96380382 -4.37295386 1.92109439 -6.5625 2.875 C-7.17158203 3.14441406 -7.78066406 3.41382813 -8.40820312 3.69140625 C-12.54509929 5.48625009 -16.64027642 6.84414021 -21 8 C-20.67 7.01 -20.34 6.02 -20 5 C-17.39042873 3.7615594 -14.89275145 2.72512126 -12.1875 1.75 C-11.46240234 1.46898437 -10.73730469 1.18796875 -9.99023438 0.8984375 C-6.1668133 -0.51479408 -3.99179116 -1.29199958 0 0 Z " fill="#FFFFFF" transform="translate(297,440)"/>
<path d="M0 0 C0.66 0.66 1.32 1.32 2 2 C0.35 2 -1.3 2 -3 2 C-2.01 1.34 -1.02 0.68 0 0 Z " fill="#FFFFFF" transform="translate(212,463)"/>
<path d="M0 0 C1.65 0 3.3 0 5 0 C5 0.33 5 0.66 5 1 C3.35 1 1.7 1 0 1 C0 0.67 0 0.34 0 0 Z " fill="#FFFFFF" transform="translate(204,465)"/>
<path d="M0 0 C3 1 3 1 3 1 Z " fill="#FFFFFF" transform="translate(191,467)"/>
<path d="M0 0 C3 1 3 1 3 1 Z " fill="#FFFFFF" transform="translate(198,466)"/>
<path d="M0 0 C2 1 2 1 2 1 Z " fill="#FFFFFF" transform="translate(214,463)"/>
<path d="" fill="#FFFFFF" transform="translate(0,0)"/>
<path d="" fill="#FFFFFF" transform="translate(0,0)"/>
<path d="" fill="#FFFFFF" transform="translate(0,0)"/>
<path d="" fill="#FFFFFF" transform="translate(0,0)"/>
</svg>
